<svg id="headline" xmlns="http://www.w3.org/2000/svg" width="131.5" height="59.5" viewBox="0 0 131.5 59.5">
  <path id="パス_140" data-name="パス 140" d="M0,0H126.82" transform="translate(3.18 58)" fill="none" stroke="#8a6600" stroke-linecap="round" stroke-width="3" stroke-dasharray="1 6"/>
  <path id="パス_430" data-name="パス 430" d="M44.817-.576c0-.768-1.055-.432-1.342-1.056-1.342-.1-2.253-.192-3.595-.288-.911-.384-.144-2.016-.623-2.688a3.285,3.285,0,0,1-.288-2.256c.1-.576-.575-.864-.479-1.584a1.836,1.836,0,0,1,0-1.728,5.415,5.415,0,0,1,.1-3.024c.192-1.056-.575-1.776-.288-2.832.1-1.536-.288-3.12-.192-4.656a16.558,16.558,0,0,1-.1-4.08c-.24-.1-.24-.432-.24-.624.431-.672,0-1.44-.1-2.112a11.706,11.706,0,0,0,.336-2.832c.144-1.68,1.246-1.44,2.4-1.44a2.361,2.361,0,0,0,1.582-.336,1.581,1.581,0,0,0,.192-.96c-.575-1.056-1.917-.96-3.116-.96-1.486,1.152-4.17-.384-5.512,1.344-.1.48-.719.864-.815,1.392-.959,1.44-1.15,3.216-2.061,4.752-.1.192.1.576-.192.672-.1,1.2-1.055,1.968-1.438,2.928a48.07,48.07,0,0,1-1.965,5.184c-.863.576-.527,1.536-1.246,2.016.1.576-.479,1.008-.575,1.488-.815.48-.719,1.44-1.39,1.92,0,.672-.431,1.1-.623,1.68-.527.288-.336,1.152-1.007,1.248-.288-.384-.192-.864-.575-1.152.192-.672-.815-.672-.911-1.3-1.055-.192-1.15-1.152-1.342-1.824a2.789,2.789,0,0,1-.671-1.776c-.479-.576-.479-1.344-.815-2.016.1-.48-.288-.912-.192-1.488-.383-.576-.192-1.44-.671-2.016-.431-1.1-.863-2.544-1.246-3.6-.671-.288-.192-1.008-.767-1.3.1-.576-.623-.912-.527-1.392-.575-.288-.479-1.1-1.1-1.488a6.565,6.565,0,0,1-.719-2.4,3.165,3.165,0,0,0-1.486-2.256A8.438,8.438,0,0,0,7.429-33.6a26,26,0,0,1-2.828,0s-2.4.1-3.595,0a1.015,1.015,0,0,0-.575.672.735.735,0,0,0,.192.864,9.4,9.4,0,0,0,3.4.288s1.39.432,2.061.72c.288.576,1.15.864.959,1.728-.479.864.575,1.68.288,2.64-.192.48.1,1.1-.1,1.584,0,.576.048,1.056.048,1.488,0,.48-.144,2.3-.144,2.928,0,.432.1.912.1,1.344,0,.816-.288,3.5-.431,5.28.336,1.152-.623,2.016,0,3.024A16.3,16.3,0,0,0,5.9-6.96c.192.192.1.672,0,.96.288.48,0,1.008,0,1.584-.479.48-.192,1.248-.575,1.824C5.129-2.4,4.7-2.3,4.7-2.016c-.623,1.008-2.013.528-2.972.816-.431.1-.623,0-1.055.1C.287-.816-.336-.624-.144.048.191.528.91.528,1.39.624A28.944,28.944,0,0,1,4.314.432c3.307-.672,6.471,0,9.778-.1A1.276,1.276,0,0,0,15-.528a1.373,1.373,0,0,0-.719-.96,5.749,5.749,0,0,0-2.54-.24A4.986,4.986,0,0,1,10.018-2.4c0-1.728-.815-3.408-.431-5.232C9.3-8.016,9.3-8.64,9.107-9.024A3.655,3.655,0,0,1,9.3-12.336c.575-1.248-.479-2.544.192-3.7.192-2.832.1-5.952.192-8.736.431-.336,0-.912.431-1.1.1.1.431.1.431.288,0,.48.383.816.575,1.3.623.768.719,2.208.911,3.216.383.672.383,1.536,1.055,2.016,0,.672.863,1.1,1.15,1.68a6.127,6.127,0,0,0,.383,2.3c.527.432,0,1.1.719,1.392-.288.576.575.768.383,1.344.479.288.288.912.671,1.2-.1.576.671.768.527,1.344a6.1,6.1,0,0,1,1.007,2.736c.527.288.24.864.623,1.152-.192.672.575,1.008.479,1.584,1.342,1.152,0,3.7,1.726,4.656a2.055,2.055,0,0,0,1.438-.384c.575-1.536,1.246-3.216,1.869-4.848.1-1.1.815-1.872,1.007-2.832-.1-.192.288-.288.192-.624.863-1.152,1.055-2.592,1.821-3.888.1-.768.767-1.344,1.2-1.92.383-1.3,1.15-2.448,1.678-3.792.431-.432.288-1.1.815-1.392.479-1.344,1.2-3.024,1.678-4.368a27.218,27.218,0,0,0,1.342-2.928c.1.1.288,0,.288.1a19.2,19.2,0,0,1,.192,3.312c.336.576.1,1.536.192,2.16.336.288.144.768.527,1.056a14.067,14.067,0,0,1-.383,4.08,34.971,34.971,0,0,1,.1,5.472,26.041,26.041,0,0,1,0,2.736c.288,1.632-.336,3.552-.527,5.088-.623,1.392-2.4.96-3.691,1.536-.24.1-.431.384-.623.576-.336.48-.1.816.192,1.2a3.621,3.621,0,0,0,2.013-.1c1.917-1.152,3.787.24,5.848-.336,1.15.1,2.253-.048,3.4.144.767.384,1.582,0,2.4.1C44.1.192,44.817.1,44.817-.576Zm2.78-9.6a8.155,8.155,0,0,0-.144,1.3c-.192.816.383,1.2.479,1.776.575.288.383.96.863,1.344-.1.624.288,1.008.288,1.488.767.192.671,1.056,1.39,1.248,0,.576.575.816.959,1.008.192.864,1.246.576,1.726,1.056A5.23,5.23,0,0,0,55.6.48a11.132,11.132,0,0,0,1.774.192A8.379,8.379,0,0,1,58.909.48c1.869-.576,4.41.1,5.656-1.824.671-.1.671-.864,1.342-1.1.815-.288,1.2-1.248,1.486-2.016.479-.96,1.63-1.68,1.726-2.736.1-.288-.1-.576.1-.864-.1-1.488-.192-2.544-.288-4.032a.79.79,0,0,1-.1-.672c-.479-.384-.192-.96-.767-1.344.192-.48-.479-.672-.288-1.2-.383-.576-.1-1.44-.575-1.92-.575-.288-.671-.96-1.294-1.152-1.055.1-1.342-1.1-2.109-1.584a8.928,8.928,0,0,1-2.253-.672c-2.253-.72-4.362.384-6.519.384-.863.672-1.774,1.248-2.732,1.968-.192.192-.192.672-.575.768A13.593,13.593,0,0,0,48.6-13.44c-.431.96-.671,1.968-1.055,2.928A.938.938,0,0,1,47.6-10.176Zm17.687.384a14.832,14.832,0,0,0-.24,1.92c-.288,1.056-.192,2.208-.671,3.12-.192,1.152-1.486,1.728-2.157,2.64-.383.192-.671.576-1.15.48a19.266,19.266,0,0,1-4.985.1c-.479-.048-.767-.672-1.246-.912,0-.672-.767-.768-.863-1.344-.479-.384-.479-.96-.911-1.344a5.16,5.16,0,0,0-.575-1.776A8.784,8.784,0,0,0,52.1-9.648a4.943,4.943,0,0,0-.048-.864,1.273,1.273,0,0,1,.144-.48c0-.672-.383-1.3-.1-1.872-.288-.768.288-1.248.288-1.92.575-.72.959-1.68,1.582-2.448.383-.48,1.055-.48,1.438-.864a9.1,9.1,0,0,0,1.869-.528c1.821.336,3.978-.192,5.129,1.488.815.768.719,1.968,1.582,2.64.1.48.479.96.575,1.44.288.672-.288,1.68.479,2.16A1.787,1.787,0,0,1,65.284-9.792Zm9.347-7.824a.9.9,0,0,0,.336.768c-.288.576.575.864.288,1.488.815.72.431,1.392.911,1.68.144.768.863.816.671,1.536.383.336,0,.912.479,1.2-.192.576.719.864.479,1.872.479.288,0,1.008.575,1.2a5.609,5.609,0,0,0,.767,2.112c-.192.576.863.672.479,1.488.479.288,0,.96.479,1.248.1.864.767,1.488.767,2.352A5.022,5.022,0,0,0,81.869.864c.479.1.671-.144,1.15-.384a2.977,2.977,0,0,0,.575-1.248c0-.768.719-1.392.911-2.064.1-.288-.1-.576.192-.768-.1-.576.431-1.152.431-1.68A4.186,4.186,0,0,0,85.8-6.768c.288-.384.527-1.536,1.055-2.016a1.85,1.85,0,0,0,.623-1.3,19.4,19.4,0,0,1,.863-2.784c.863-.48.623-1.392,1.39-1.968.192-1.2,1.2-2.4,1.678-3.36.767-.912,2.2-.528,3.307-1.1.1-.288.383-.288.192-.768A1.491,1.491,0,0,0,94-20.736h-.527c-1.39,0-2.349.192-3.643.288a4.325,4.325,0,0,0-1.342-.192c-.767,0-1.534.144-2.253.192-.479.192-.959.576-.767,1.152a1.426,1.426,0,0,0,.959.576c.144,0,1.438-.1,1.774.336a1.541,1.541,0,0,1,.192.864,1.937,1.937,0,0,1-.288,1.056c-.719,1.584-1.15,2.592-1.678,4.032,0,.1-.383.72-.383.816-.192.624-.863,1.1-.911,2.208A3.649,3.649,0,0,0,84.122-7.3c-.527.192-.815,1.44-1.294.48A11.86,11.86,0,0,0,81.773-9.36c-.1-.192,0-.576-.288-.768.048-.912-.671-1.1-.383-1.776-.527-.144-.1-1.008-.575-1.392.1-.672-.959-.672-.431-1.344-.671-.1-.719-1.344-.911-1.824a3.724,3.724,0,0,1-.336-1.44c0-.576.863-.624,1.342-.816.719-.048,1.582.192,2.253-.288a.557.557,0,0,0,.192-.48,1.234,1.234,0,0,0-.575-1.008,4.64,4.64,0,0,0-1.1-.144c-.431,0-1.965.192-2.924.192-1.055-.048-1.534-.384-2.2-.384a17.794,17.794,0,0,1-2.013.288c-.288,0-.767-.048-1.294-.1-.479-.048-1.007-.1-1.294-.1a.973.973,0,0,0-.767.864c0,1.3,1.678.72,2.349,1.056.383.192,1.1-.1,1.294.432A.845.845,0,0,1,74.631-17.616Zm30.15-15.168c-.24-.432.144-1.1-.479-1.392-.048-.528-.767-.576-1.007-1.056-.863-.672-1.965-.384-3.068-.48a4.73,4.73,0,0,0-1.678,3.168c-.192,1.008.767,1.008,1.055,1.728.863.384,1.438,1.344,2.493,1.056a1.715,1.715,0,0,0,1.2-.768C104.4-30.672,104.4-31.92,104.781-32.784Zm3.4,31.92c-.24-1.1-1.774-.864-3.787-1.152-.1-.48-.911-.72-.575-1.3-.336-.96.479-1.872.288-2.448-.24-.72.1-1.392-.336-1.968.1-.576-.1-.96,0-1.536-.479-.288-.192-.912-.479-1.3.288-.672-.1-1.536.288-2.208a20.263,20.263,0,0,0,.192-2.352c-.192-.672.1-1.392-.192-1.968a6.448,6.448,0,0,0,0-3.024c-.479-1.152-1.917-.864-2.588-.288-1.007,1.392-3.02.48-4.122,1.68a.878.878,0,0,0,.288,1.344c.815-.384,1.486.432,2.061.72.192.432.479.864.192,1.44.767.576.575,1.632.383,2.544-.1,1.536.479,3.216.288,4.752.1.864.1,1.824.192,2.592-.575.96-.288,2.112-.863,3.12a4.013,4.013,0,0,1-1.438.384c-.719.672-1.869.1-2.349.864-.192.576.288.816.479,1.248.863.48,1.774-.24,2.732-.336.767.336,1.869,0,2.828.1.863,0,1.821-.576,2.636,0,1.246.144,2.493.528,3.307.24C107.993.048,108.376-.384,108.184-.864Zm1.965-8.592a3.549,3.549,0,0,0,.1.576,2.488,2.488,0,0,1,.671,1.968,4.03,4.03,0,0,1,.383,1.536c.527.432.24,1.1.719,1.3,0,.672.767.864.767,1.536.767.1.767,1.2,1.534,1.392.192,1.056,1.486,1.008,2.349,1.344,1.774.72,3.883,0,5.848.1.767-.192,1.342-.96,2.253-1.152a22.2,22.2,0,0,1,2.2-1.776c.192-.672,1.007-.672,1.2-1.44.383-.96-.192-1.056-.288-1.68a1.557,1.557,0,0,0-1.246.384,9.6,9.6,0,0,1-2.157,1.968,7.724,7.724,0,0,1-4.41,1.056c-.575,0-.863-.48-1.15-.768-.671-.1-1.678.1-1.965-.672-.575-.288-.288-1.152-1.055-1.152s-.479-1.008-1.15-1.3c.1-.576-.815-.672-.527-1.248-.383-.288-.144-.816-.144-1.344a7.982,7.982,0,0,1-.144-2.544c.383-1.1,1.774-.72,2.732-.72.383.624,1.055.1,1.678.384a26.231,26.231,0,0,1,6.806-.672c.575-.864,1.774-.384,2.3-1.152a2.283,2.283,0,0,0,.24-2.064,3.364,3.364,0,0,1-.911-1.728c0-.288-.383-.384-.383-.768a4.562,4.562,0,0,0-1.821-1.872c-1.486,0-3.02-1.056-4.122-1.056-.383,0-3.116,1.1-4.745,1.728a36.757,36.757,0,0,1-2.732,2.736c-.383.576-.767,1.152-1.246,1.776-.431.864-.527,1.728-1.007,2.5C110.629-11.376,110.15-10.128,110.15-9.456ZM123-15.312c0,.24-.048.816-.383,1.008a42.137,42.137,0,0,1-4.889.48c-.959-.48-2.2.288-3.212-.192-.1-.48.336-.912.431-1.392a14.956,14.956,0,0,1,1.534-1.92,11.338,11.338,0,0,1,3.307-1.584,1.838,1.838,0,0,1,1.869,1.1,7.7,7.7,0,0,1,1.246,1.824A3.246,3.246,0,0,1,123-15.312Z" transform="translate(0.18 35.712)" fill="#6f664e"/>
</svg>
