<svg xmlns="http://www.w3.org/2000/svg" width="127.5" height="60.212" viewBox="0 0 127.5 60.212"><g transform="translate(0.82)"><path d="M44.88-.576c0-.768-1.056-.432-1.344-1.056-1.344-.1-2.256-.192-3.6-.288-.912-.384-.144-2.016-.624-2.688a3.281,3.281,0,0,1-.288-2.256c.1-.576-.576-.864-.48-1.584a1.833,1.833,0,0,1,0-1.728,5.408,5.408,0,0,1,.1-3.024c.192-1.056-.576-1.776-.288-2.832.1-1.536-.288-3.12-.192-4.656a16.535,16.535,0,0,1-.1-4.08c-.24-.1-.24-.432-.24-.624.432-.672,0-1.44-.1-2.112a11.691,11.691,0,0,0,.336-2.832c.144-1.68,1.248-1.44,2.4-1.44a2.367,2.367,0,0,0,1.584-.336,1.579,1.579,0,0,0,.192-.96c-.576-1.056-1.92-.96-3.12-.96-1.488,1.152-4.176-.384-5.52,1.344-.1.48-.72.864-.816,1.392-.96,1.44-1.152,3.216-2.064,4.752-.1.192.1.576-.192.672-.1,1.2-1.056,1.968-1.44,2.928A48.028,48.028,0,0,1,27.12-17.76c-.864.576-.528,1.536-1.248,2.016.1.576-.48,1.008-.576,1.488-.816.48-.72,1.44-1.392,1.92,0,.672-.432,1.1-.624,1.68-.528.288-.336,1.152-1.008,1.248-.288-.384-.192-.864-.576-1.152.192-.672-.816-.672-.912-1.3-1.056-.192-1.152-1.152-1.344-1.824a2.787,2.787,0,0,1-.672-1.776c-.48-.576-.48-1.344-.816-2.016.1-.48-.288-.912-.192-1.488-.384-.576-.192-1.44-.672-2.016-.432-1.1-.864-2.544-1.248-3.6-.672-.288-.192-1.008-.768-1.3.1-.576-.624-.912-.528-1.392-.576-.288-.48-1.1-1.1-1.488a6.558,6.558,0,0,1-.72-2.4,3.164,3.164,0,0,0-1.488-2.256A8.461,8.461,0,0,0,7.44-33.6a26.069,26.069,0,0,1-2.832,0s-2.4.1-3.6,0a1.015,1.015,0,0,0-.576.672.734.734,0,0,0,.192.864,9.423,9.423,0,0,0,3.408.288s1.392.432,2.064.72c.288.576,1.152.864.96,1.728-.48.864.576,1.68.288,2.64-.192.48.1,1.1-.1,1.584,0,.576.048,1.056.048,1.488,0,.48-.144,2.3-.144,2.928,0,.432.1.912.1,1.344,0,.816-.288,3.5-.432,5.28.336,1.152-.624,2.016,0,3.024A16.279,16.279,0,0,0,5.9-6.96c.192.192.1.672,0,.96.288.48,0,1.008,0,1.584-.48.48-.192,1.248-.576,1.824C5.136-2.4,4.7-2.3,4.7-2.016c-.624,1.008-2.016.528-2.976.816-.432.1-.624,0-1.056.1C.288-.816-.336-.624-.144.048.192.528.912.528,1.392.624A29.024,29.024,0,0,1,4.32.432c3.312-.672,6.48,0,9.792-.1a1.277,1.277,0,0,0,.912-.864,1.373,1.373,0,0,0-.72-.96,5.764,5.764,0,0,0-2.544-.24A5,5,0,0,1,10.032-2.4c0-1.728-.816-3.408-.432-5.232-.288-.384-.288-1.008-.48-1.392a3.651,3.651,0,0,1,.192-3.312c.576-1.248-.48-2.544.192-3.7.192-2.832.1-5.952.192-8.736.432-.336,0-.912.432-1.1.1.1.432.1.432.288,0,.48.384.816.576,1.3.624.768.72,2.208.912,3.216.384.672.384,1.536,1.056,2.016,0,.672.864,1.1,1.152,1.68a6.12,6.12,0,0,0,.384,2.3c.528.432,0,1.1.72,1.392-.288.576.576.768.384,1.344.48.288.288.912.672,1.2-.1.576.672.768.528,1.344a6.1,6.1,0,0,1,1.008,2.736c.528.288.24.864.624,1.152-.192.672.576,1.008.48,1.584,1.344,1.152,0,3.7,1.728,4.656a2.06,2.06,0,0,0,1.44-.384C22.8-1.584,23.472-3.264,24.1-4.9c.1-1.1.816-1.872,1.008-2.832-.1-.192.288-.288.192-.624.864-1.152,1.056-2.592,1.824-3.888.1-.768.768-1.344,1.2-1.92.384-1.3,1.152-2.448,1.68-3.792.432-.432.288-1.1.816-1.392.48-1.344,1.2-3.024,1.68-4.368A27.2,27.2,0,0,0,33.84-26.64c.1.1.288,0,.288.1a19.176,19.176,0,0,1,.192,3.312c.336.576.1,1.536.192,2.16.336.288.144.768.528,1.056a14.048,14.048,0,0,1-.384,4.08,34.923,34.923,0,0,1,.1,5.472,26.005,26.005,0,0,1,0,2.736c.288,1.632-.336,3.552-.528,5.088-.624,1.392-2.4.96-3.7,1.536-.24.1-.432.384-.624.576-.336.48-.1.816.192,1.2a3.631,3.631,0,0,0,2.016-.1C34.032-.576,35.9.816,37.968.24c1.152.1,2.256-.048,3.408.144.768.384,1.584,0,2.4.1C44.16.192,44.88.1,44.88-.576Zm26.16-2.16c-1.1-.672-2.256.192-3.408.1-.288-.288-.144-.768-.24-1.248-.1-.288.1-.768-.24-1.056.24-.528-.288-1.008.288-1.584-.1-.768,0-1.632-.1-2.544a1.972,1.972,0,0,1,0-1.056c-.288-.48.24-.96.1-1.44-.288-.624.048-1.2-.288-1.68a14.11,14.11,0,0,0,.24-2.832A12.679,12.679,0,0,1,67.68-19.1c-.528-.48.048-.768-.144-1.152-.1-.864-.912-1.056-1.584-.96-1.488.576-3.072.24-4.32.768-.768.144-1.968,0-2.256.96a.865.865,0,0,0,.768.768c1.008,0,1.872-.1,2.544.816.912.384.912,1.248.912,2.016.576.672-.336,1.392.1,2.064-.192.576.432,1.056.192,1.632a3.041,3.041,0,0,0,.1,2.16c-.192.48,0,1.152-.1,1.68-.1.864-.1,1.632-.192,2.4.192.48-.1.912-.1,1.3a2.972,2.972,0,0,1-1.008.768A16.28,16.28,0,0,1,60.576-2.3c-1.776.432-3.648-.288-5.28-.768-.384-.384-1.056-.72-.96-1.392-.48-.384-.288-.864-.528-1.392-.192-.672-.192-1.248-.384-1.824.288-.672-.192-1.2.1-1.872.288-.48-.288-.864,0-1.44a3.41,3.41,0,0,1-.192-2.064,28.312,28.312,0,0,1,.48-3.6c-.288-.288.24-.576-.1-.864,0-.672.432-1.392.1-1.968a2.527,2.527,0,0,0,0-1.2c-.336-.384-.384-.72-.864-.816a3.516,3.516,0,0,0-1.776.528c-1.056,0-1.344.528-2.4.432-.864.192-1.872-.1-2.5.768-.288.384,0,.288-.192.672.192.336.768.336,1.152.432a2.7,2.7,0,0,1,2.16.72c.576.288.144,1.968.336,2.448,0,.192-.288.528,0,.72-.192.576.288.96.1,1.536.288.384-.192.768,0,1.152-.288.912,0,1.776-.192,2.544.192.288-.1.768.1,1.008,0,.672.1,1.056.1,1.632.192.768-.1,1.584.1,2.352.192.288-.288.48.1.672-.192.48.192.864.384,1.248,0,.192.24.384.528.384.192.1.576.336.48.72C52.176-1.152,52.08-.1,53.04,0c.384.576,1.3.48,1.968.576.48.192,1.056.48,1.536.192.912-.384,2.16.1,3.024-.384,1.1-.672,2.256-1.152,3.312-1.92.288-.288.48.192.48.384-.288.672.624.864.432,1.536a2.053,2.053,0,0,0,1.824-.1c.672-.864,1.872-.96,3.072-1.056.672-.384,1.68-.192,2.256-.864C71.232-1.92,71.04-2.352,71.04-2.736ZM80.976-19.1c.96.288,1.824-.336,2.592.576a3.057,3.057,0,0,1,1.68,1.1c.48.912.144.48.576,1.344.288.576.48.912.912,1.1.768-.144,1.1-.768.96-2.064.1-1.3.144-2.256-.144-2.544a7.755,7.755,0,0,0-2.256-1.2,4.069,4.069,0,0,0-1.872-.336,4.927,4.927,0,0,1-1.68,0,11.009,11.009,0,0,0-3.888.912c-.1.528-.672.528-.96.912a9.09,9.09,0,0,0-1.2,1.44c-.1.864-.768,1.536-.768,2.256a3.544,3.544,0,0,0,.1.576c-.288.624.384,1.008.192,1.68.48.288,0,.96.672,1.152,0,.624.624.384.72.96.384.48,1.2.288,1.632,1.2a7.264,7.264,0,0,0,2.64,1.056c.384,1.008,1.152,1.008,1.872,1.488.192.576,1.056.576,1.056,1.248.672.1.576.864.96,1.3,0,.288.1.768.1.96a2.022,2.022,0,0,1-.192.864C84.48-2.736,84-1.968,83.52-1.872c-.768.816-1.728.768-2.688,1.056a3.254,3.254,0,0,1-2.976-1.44c-.672-.1-.48-.96-1.248-1.152,0-.576-.768-.624-.576-1.056C75.6-5.424,75.408-6.1,74.448-6.1c-.48,0-.384.672-.48,1.008.1.912.048,1.632.144,2.4.1.672-.144,1.344.624,1.536.192.672.96.288,1.2.72a11.666,11.666,0,0,0,1.68.96c1.392.528,2.832.048,4.08.144C82.368.1,83.136.576,83.808,0a6.612,6.612,0,0,0,3.12-2.352c1.248-.384.768-1.728,1.44-2.5a.609.609,0,0,0,.048-.288c0-.576-.336-1.008-.24-1.488-.576-.384-.288-1.056-.768-1.344.192-.816-.864-.816-.864-1.488-.576-.1-.72-.576-1.008-.96a21.657,21.657,0,0,0-2.112-1.056c-.576-.816-1.584-.72-2.256-1.152-.384-.288-.576-.672-1.056-.768-.384-.672-1.3-.576-1.584-1.056-.1-.576-.96-.768-.528-1.584-.192-.144-.384-.288-.384-.384,0-.336.432-.576.288-1.152.288,0,.1-.048.192-.24a3.7,3.7,0,0,1,2.688-1.3Zm19.584-13.68c-.24-.432.144-1.1-.48-1.392-.048-.528-.768-.576-1.008-1.056-.864-.672-1.968-.384-3.072-.48a4.728,4.728,0,0,0-1.68,3.168c-.192,1.008.768,1.008,1.056,1.728.864.384,1.44,1.344,2.5,1.056a1.718,1.718,0,0,0,1.2-.768C100.176-30.672,100.176-31.92,100.56-32.784Zm3.408,31.92c-.24-1.1-1.776-.864-3.792-1.152-.1-.48-.912-.72-.576-1.3-.336-.96.48-1.872.288-2.448-.24-.72.1-1.392-.336-1.968.1-.576-.1-.96,0-1.536-.48-.288-.192-.912-.48-1.3.288-.672-.1-1.536.288-2.208a20.238,20.238,0,0,0,.192-2.352c-.192-.672.1-1.392-.192-1.968a6.44,6.44,0,0,0,0-3.024c-.48-1.152-1.92-.864-2.592-.288-1.008,1.392-3.024.48-4.128,1.68a.877.877,0,0,0,.288,1.344c.816-.384,1.488.432,2.064.72.192.432.48.864.192,1.44.768.576.576,1.632.384,2.544-.1,1.536.48,3.216.288,4.752.1.864.1,1.824.192,2.592-.576.96-.288,2.112-.864,3.12a4.023,4.023,0,0,1-1.44.384c-.72.672-1.872.1-2.352.864-.192.576.288.816.48,1.248.864.48,1.776-.24,2.736-.336.768.336,1.872,0,2.832.1.864,0,1.824-.576,2.64,0,1.248.144,2.5.528,3.312.24C103.776.048,104.16-.384,103.968-.864Zm20.448-4.944c-.192-.288-.48-.192-.672-.48-.912-.384-1.1.768-1.872,1.1a7.8,7.8,0,0,1-1.824,1.728,4.2,4.2,0,0,1-2.832,1.1,7.089,7.089,0,0,1-1.008-.048,5.205,5.205,0,0,1-2.3-.864c-.912,0-.912-.96-1.68-1.152.1-.672-.864-.576-.768-1.3-.864-.192-.192-1.152-.96-1.44.1-.576-.624-.864-.1-1.392a1.657,1.657,0,0,1-.1-1.632c-.432-.48.288-.96,0-1.44.384-.336-.24-.72.1-1.1-.1-.576.1-1.056-.1-1.536.288-.576-.24-1.3.576-1.584-.192-.288.192-.384.192-.672.288-.192.384-.576.672-.864,0-.672.864-.48,1.056-1.1.912-.288,1.968-.192,2.544-1.056,1.392-.288,2.16.96,3.024,1.776.192.672.768.864,1.248,1.248.336.48.912.672,1.3,1.152.576.288,1.152-.192,1.728-.384a2.01,2.01,0,0,1,.624-1.056c-.24-.288.288-.864-.336-1.056.432-.816-.48-1.008-.768-1.584-1.152-.288-2.016-1.248-3.216-1.632-1.056.768-2.352-.1-3.5,0-1.152.672-2.736.384-3.7,1.344.1.672-.768.48-.96.96-.72.816-1.68,1.008-2.064,1.872-.192.288-.576.672-.576,1.056-.48.288-.288.864-.768,1.008.1.384-.528.48-.192.864-.432.384-.192.96-.624,1.344a1.461,1.461,0,0,1-.288,1.2c-.384.384-.192.96-.192,1.44.48.48,0,1.056.1,1.584-.384.384-.1.96-.192,1.44-.288.672.576.864.288,1.632.48.336.1,1.008.816,1.3-.1.672.768.672.768,1.344.576.672,1.44,1.1,2.016,1.872,1.2.1,1.968,1.152,3.216.96A1.016,1.016,0,0,0,114,.336a1.037,1.037,0,0,0,.672.288c.288,0,.528.1.768.1.72,0,1.824-.768,2.736-.96a4.771,4.771,0,0,0,2.736-1.44c.288-.1.672-.1.864-.528.1-.96,1.056-1.536,1.68-2.3A1.856,1.856,0,0,0,124.416-5.808Z" transform="translate(0.18 35.712)" fill="#6f664e"/><path d="M0,0H124.5" transform="translate(0.68 58.712)" fill="none" stroke="#8a6600" stroke-linecap="round" stroke-width="3" stroke-dasharray="1 6"/></g></svg>